<svg xmlns="http://www.w3.org/2000/svg" xmlns:xlink="http://www.w3.org/1999/xlink" version="1.1" x="0px" y="0px" style="enable-background:new 0 0 206.93 104.88;" xml:space="preserve" viewBox="28.34 28.34 150.24 48.27">
<style type="text/css">
	.st0{fill:#91C9E3;}
	.st1{fill:#F58232;}
</style>
<g id="Layer_5">
	<g>
		<g>
			<g>
				<path class="st0" d="M48.18,59.52V35.43c0-2.34,1.91-4.25,4.25-4.25c2.34,0,4.25,1.91,4.25,4.25v8.5h2.84v-8.5      c0-3.91-3.17-7.09-7.09-7.09s-7.09,3.17-7.09,7.09v24.09H48.18z"/>
				<path class="st0" d="M56.69,45.35v24.09c0,2.34-1.91,4.25-4.25,4.25c-2.34,0-4.25-1.91-4.25-4.25V55.27h-2.84v14.17      c0,3.91,3.17,7.09,7.09,7.09s7.09-3.17,7.09-7.09V45.35H56.69z"/>
			</g>
			<polygon class="st1" points="34.02,58.1 34.02,61.77 37.43,63.2 42.52,58.1 36.86,59.52    "/>
			<circle class="st1" cx="36.02" cy="61.77" r="2"/>
			<g>
				<polygon class="st1" points="45.35,56.69 39.7,56.69 36.86,59.52 45.35,59.52     "/>
				<path class="st1" d="M69.44,45.35H35.43c-3.91,0-7.09,3.17-7.09,7.09s3.17,7.09,7.09,7.09h1.42v-2.84h-1.42      c-2.34,0-4.25-1.91-4.25-4.25c0-2.34,1.91-4.25,4.25-4.25h34.01c2.34,0,4.25,1.91,4.25,4.25c0,2.34-1.91,4.25-4.25,4.25H49.6      v2.84h19.84c3.91,0,7.09-3.17,7.09-7.09S73.35,45.35,69.44,45.35z"/>
			</g>
		</g>
		<g>
			<path class="st1" d="M82.2,46.51c0-0.33,0.11-0.6,0.34-0.82c0.23-0.22,0.51-0.33,0.83-0.33c0.33,0,0.6,0.11,0.83,0.33     c0.22,0.22,0.33,0.5,0.33,0.82v4.81h6.34v-4.81c0-0.33,0.11-0.6,0.33-0.82c0.22-0.22,0.5-0.33,0.83-0.33     c0.33,0,0.61,0.11,0.83,0.33c0.23,0.22,0.34,0.5,0.34,0.82v11.86c0,0.33-0.11,0.6-0.34,0.83c-0.23,0.22-0.51,0.33-0.83,0.33     c-0.33,0-0.6-0.11-0.83-0.33c-0.22-0.22-0.33-0.5-0.33-0.83v-4.89h-6.34v4.89c0,0.33-0.11,0.6-0.33,0.83     c-0.22,0.22-0.5,0.33-0.83,0.33c-0.33,0-0.61-0.11-0.83-0.33c-0.23-0.22-0.34-0.5-0.34-0.83V46.51z"/>
			<path class="st1" d="M103.65,58.33c-0.46,0.41-0.97,0.73-1.55,0.97c-0.58,0.24-1.26,0.36-2.06,0.36c-0.72,0-1.39-0.13-2.02-0.38     c-0.63-0.25-1.17-0.61-1.63-1.06c-0.46-0.46-0.83-1-1.09-1.64c-0.27-0.64-0.4-1.34-0.4-2.12v-0.04c0-0.72,0.12-1.4,0.36-2.03     c0.24-0.63,0.58-1.19,1.02-1.66c0.44-0.47,0.95-0.85,1.55-1.12s1.25-0.41,1.97-0.41c0.8,0,1.49,0.15,2.09,0.45     c0.59,0.3,1.09,0.68,1.49,1.16c0.4,0.47,0.7,1,0.89,1.58c0.2,0.58,0.29,1.16,0.29,1.75c0,0.33-0.11,0.59-0.32,0.8     c-0.22,0.2-0.47,0.3-0.76,0.3H97.2c0.13,0.83,0.45,1.47,0.97,1.9c0.52,0.43,1.16,0.65,1.92,0.65c0.48,0,0.91-0.08,1.3-0.24     c0.39-0.16,0.74-0.37,1.07-0.64c0.09-0.06,0.17-0.11,0.26-0.15c0.08-0.04,0.19-0.06,0.33-0.06c0.25,0,0.47,0.09,0.65,0.27     c0.18,0.18,0.27,0.4,0.27,0.66c0,0.14-0.03,0.27-0.09,0.39C103.81,58.14,103.74,58.25,103.65,58.33z M102.32,53.72     c-0.04-0.37-0.12-0.71-0.25-1.03c-0.13-0.32-0.3-0.6-0.51-0.83s-0.47-0.42-0.77-0.56c-0.3-0.14-0.64-0.21-1.01-0.21     c-0.72,0-1.31,0.24-1.76,0.72c-0.46,0.48-0.73,1.12-0.83,1.92H102.32z"/>
			<path class="st1" d="M123.5,75.26c-0.46,0.41-0.97,0.73-1.55,0.97c-0.58,0.24-1.26,0.36-2.06,0.36c-0.72,0-1.39-0.13-2.02-0.38     c-0.63-0.25-1.17-0.61-1.63-1.06c-0.46-0.46-0.83-1-1.09-1.64c-0.27-0.64-0.4-1.34-0.4-2.12v-0.04c0-0.72,0.12-1.4,0.36-2.03     c0.24-0.63,0.58-1.19,1.02-1.66c0.44-0.47,0.95-0.85,1.55-1.12c0.59-0.27,1.25-0.41,1.97-0.41c0.8,0,1.49,0.15,2.09,0.45     c0.59,0.3,1.09,0.68,1.49,1.16c0.4,0.47,0.7,1,0.89,1.58c0.2,0.58,0.29,1.16,0.29,1.75c0,0.33-0.11,0.59-0.32,0.8     c-0.22,0.2-0.47,0.3-0.76,0.3h-6.28c0.13,0.83,0.45,1.47,0.97,1.9c0.52,0.43,1.16,0.65,1.92,0.65c0.48,0,0.91-0.08,1.3-0.24     c0.39-0.16,0.74-0.37,1.07-0.64c0.09-0.06,0.17-0.11,0.26-0.15c0.08-0.04,0.19-0.06,0.33-0.06c0.25,0,0.47,0.09,0.65,0.27     c0.18,0.18,0.27,0.4,0.27,0.66c0,0.14-0.03,0.27-0.09,0.39C123.66,75.07,123.59,75.17,123.5,75.26z M122.17,70.65     c-0.04-0.37-0.12-0.71-0.25-1.03c-0.13-0.32-0.3-0.6-0.51-0.83s-0.47-0.42-0.77-0.56c-0.3-0.14-0.64-0.21-1.01-0.21     c-0.72,0-1.31,0.24-1.76,0.72c-0.46,0.48-0.73,1.12-0.83,1.92H122.17z"/>
			<path class="st1" d="M166.57,75.26c-0.46,0.41-0.97,0.73-1.55,0.97c-0.58,0.24-1.26,0.36-2.06,0.36c-0.72,0-1.39-0.13-2.02-0.38     c-0.63-0.25-1.17-0.61-1.63-1.06c-0.46-0.46-0.83-1-1.09-1.64c-0.27-0.64-0.4-1.34-0.4-2.12v-0.04c0-0.72,0.12-1.4,0.36-2.03     c0.24-0.63,0.58-1.19,1.02-1.66c0.44-0.47,0.95-0.85,1.55-1.12c0.59-0.27,1.25-0.41,1.97-0.41c0.8,0,1.49,0.15,2.09,0.45     c0.59,0.3,1.09,0.68,1.49,1.16c0.4,0.47,0.7,1,0.89,1.58c0.2,0.58,0.29,1.16,0.29,1.75c0,0.33-0.11,0.59-0.32,0.8     c-0.22,0.2-0.47,0.3-0.76,0.3h-6.28c0.13,0.83,0.45,1.47,0.97,1.9c0.52,0.43,1.16,0.65,1.92,0.65c0.48,0,0.91-0.08,1.3-0.24     c0.39-0.16,0.74-0.37,1.07-0.64c0.09-0.06,0.17-0.11,0.26-0.15c0.08-0.04,0.19-0.06,0.33-0.06c0.25,0,0.47,0.09,0.65,0.27     c0.18,0.18,0.27,0.4,0.27,0.66c0,0.14-0.03,0.27-0.09,0.39C166.73,75.07,166.66,75.17,166.57,75.26z M165.24,70.65     c-0.04-0.37-0.12-0.71-0.25-1.03c-0.13-0.32-0.3-0.6-0.51-0.83c-0.22-0.23-0.47-0.42-0.77-0.56c-0.3-0.14-0.64-0.21-1.01-0.21     c-0.72,0-1.31,0.24-1.76,0.72c-0.46,0.48-0.73,1.12-0.83,1.92H165.24z"/>
			<path class="st1" d="M177.67,58.33c-0.46,0.41-0.97,0.73-1.55,0.97c-0.58,0.24-1.26,0.36-2.06,0.36c-0.72,0-1.39-0.13-2.02-0.38     c-0.63-0.25-1.17-0.61-1.63-1.06c-0.46-0.46-0.83-1-1.09-1.64c-0.27-0.64-0.4-1.34-0.4-2.12v-0.04c0-0.72,0.12-1.4,0.36-2.03     s0.58-1.19,1.02-1.66c0.44-0.47,0.95-0.85,1.55-1.12c0.59-0.27,1.25-0.41,1.97-0.41c0.8,0,1.49,0.15,2.09,0.45     c0.59,0.3,1.09,0.68,1.49,1.16c0.4,0.47,0.7,1,0.89,1.58c0.2,0.58,0.29,1.16,0.29,1.75c0,0.33-0.11,0.59-0.32,0.8     c-0.22,0.2-0.47,0.3-0.76,0.3h-6.28c0.13,0.83,0.45,1.47,0.97,1.9c0.52,0.43,1.16,0.65,1.92,0.65c0.48,0,0.91-0.08,1.3-0.24     c0.39-0.16,0.74-0.37,1.07-0.64c0.09-0.06,0.17-0.11,0.26-0.15c0.08-0.04,0.19-0.06,0.33-0.06c0.25,0,0.47,0.09,0.65,0.27     c0.18,0.18,0.27,0.4,0.27,0.66c0,0.14-0.03,0.27-0.09,0.39C177.83,58.14,177.76,58.25,177.67,58.33z M176.34,53.72     c-0.04-0.37-0.12-0.71-0.25-1.03c-0.13-0.32-0.3-0.6-0.51-0.83c-0.22-0.23-0.47-0.42-0.77-0.56c-0.3-0.14-0.64-0.21-1.01-0.21     c-0.72,0-1.31,0.24-1.76,0.72c-0.46,0.48-0.73,1.12-0.83,1.92H176.34z"/>
			<g>
				<path class="st1" d="M116.01,49.63c-0.22-0.22-0.5-0.33-0.83-0.33c-0.32,0-0.59,0.11-0.81,0.33c-0.22,0.22-0.33,0.49-0.33,0.81      v0.53c0,0,0,0,0,0v2.98c0.02,0.15,0.04,0.3,0.04,0.46v0.04c0,0.16-0.02,0.31-0.04,0.46v2.87c0,0,0,0,0,0v0.63      c0,0.33,0.11,0.6,0.33,0.82c0.22,0.22,0.5,0.32,0.83,0.32c0.32,0,0.58-0.11,0.81-0.32c0.22-0.21,0.33-0.49,0.33-0.82v-7.93      C116.34,50.13,116.23,49.86,116.01,49.63z"/>
				<path class="st1" d="M110.61,49.17c-2.57,0-4.66,2.35-4.66,5.24c0,2.9,2.09,5.24,4.66,5.24s4.66-2.35,4.66-5.24      C115.27,51.52,113.19,49.17,110.61,49.17z M111.19,57.67c-1.6,0-2.89-1.46-2.89-3.26c0-1.8,1.3-3.26,2.89-3.26      s2.89,1.46,2.89,3.26C114.08,56.22,112.79,57.67,111.19,57.67z"/>
			</g>
			<g>
				<path class="st1" d="M160.1,49.63c-0.22-0.22-0.5-0.33-0.83-0.33c-0.32,0-0.59,0.11-0.81,0.33c-0.22,0.22-0.33,0.49-0.33,0.81      v0.53c0,0,0,0,0,0v2.98c0.02,0.15,0.04,0.3,0.04,0.46v0.04c0,0.16-0.02,0.31-0.04,0.46v2.87c0,0,0,0,0,0v0.63      c0,0.33,0.11,0.6,0.33,0.82c0.22,0.22,0.5,0.32,0.83,0.32c0.32,0,0.58-0.11,0.81-0.32c0.22-0.21,0.33-0.49,0.33-0.82v-7.93      C160.44,50.13,160.33,49.86,160.1,49.63z"/>
				<path class="st1" d="M154.71,49.17c-2.57,0-4.66,2.35-4.66,5.24c0,2.9,2.09,5.24,4.66,5.24s4.66-2.35,4.66-5.24      C159.37,51.52,157.29,49.17,154.71,49.17z M155.29,57.67c-1.6,0-2.89-1.46-2.89-3.26c0-1.8,1.3-3.26,2.89-3.26      s2.89,1.46,2.89,3.26C158.18,56.22,156.88,57.67,155.29,57.67z"/>
			</g>
			<path class="st1" d="M106.49,63.5c0-0.32,0.11-0.58,0.32-0.81c0.22-0.22,0.49-0.33,0.82-0.33c0.33,0,0.6,0.11,0.83,0.33     c0.22,0.22,0.33,0.49,0.33,0.81v11.9c0,0.33-0.11,0.6-0.33,0.82c-0.22,0.22-0.5,0.32-0.83,0.32c-0.32,0-0.59-0.11-0.81-0.32     c-0.22-0.21-0.33-0.49-0.33-0.82V63.5z"/>
			<path class="st1" d="M110.67,63.5c0-0.32,0.11-0.58,0.32-0.81c0.22-0.22,0.49-0.33,0.82-0.33c0.33,0,0.6,0.11,0.83,0.33     c0.22,0.22,0.33,0.49,0.33,0.81v11.9c0,0.33-0.11,0.6-0.33,0.82c-0.22,0.22-0.5,0.32-0.83,0.32c-0.32,0-0.59-0.11-0.81-0.32     c-0.22-0.21-0.33-0.49-0.33-0.82V63.5z"/>
			<path class="st1" d="M118.23,46.5c0-0.32,0.11-0.58,0.32-0.81c0.22-0.22,0.49-0.33,0.82-0.33c0.33,0,0.6,0.11,0.83,0.33     c0.22,0.22,0.33,0.49,0.33,0.81v11.9c0,0.33-0.11,0.6-0.33,0.82c-0.22,0.22-0.5,0.32-0.83,0.32c-0.32,0-0.59-0.11-0.81-0.32     c-0.22-0.21-0.33-0.49-0.33-0.82V46.5z"/>
			<path class="st1" d="M145.13,59.66c-0.75,0-1.44-0.14-2.07-0.41c-0.63-0.27-1.18-0.64-1.64-1.11c-0.46-0.47-0.82-1.02-1.08-1.65     c-0.26-0.63-0.39-1.3-0.39-2.01v-0.04c0-0.71,0.13-1.38,0.39-2.02c0.26-0.64,0.62-1.2,1.09-1.67c0.47-0.47,1.02-0.85,1.65-1.13     c0.63-0.28,1.33-0.42,2.09-0.42c0.8,0,1.47,0.12,2.03,0.35c0.56,0.23,1.05,0.53,1.48,0.9c0.08,0.06,0.15,0.16,0.24,0.3     c0.08,0.14,0.12,0.3,0.12,0.49c0,0.29-0.1,0.54-0.31,0.74c-0.21,0.2-0.46,0.3-0.75,0.3c-0.28,0-0.51-0.08-0.68-0.23     c-0.29-0.25-0.61-0.46-0.95-0.62c-0.34-0.16-0.74-0.24-1.2-0.24c-0.42,0-0.8,0.08-1.16,0.26c-0.35,0.17-0.66,0.4-0.92,0.68     c-0.26,0.28-0.46,0.62-0.61,1.01c-0.15,0.39-0.22,0.8-0.22,1.23v0.04c0,0.44,0.07,0.86,0.22,1.25c0.15,0.39,0.35,0.73,0.62,1.02     c0.27,0.29,0.58,0.52,0.95,0.68c0.37,0.16,0.77,0.25,1.21,0.25c0.46,0,0.86-0.08,1.22-0.25c0.36-0.16,0.7-0.38,1.01-0.65     c0.06-0.06,0.15-0.12,0.26-0.17c0.11-0.05,0.23-0.08,0.37-0.08c0.28,0,0.51,0.1,0.7,0.29c0.19,0.2,0.28,0.43,0.28,0.71     c0,0.3-0.11,0.54-0.32,0.72c-0.44,0.43-0.95,0.78-1.53,1.03C146.67,59.53,145.97,59.66,145.13,59.66z"/>
			<path class="st1" d="M88.87,76.54c-0.96,0-1.85-0.18-2.66-0.55c-0.81-0.36-1.51-0.86-2.11-1.5c-0.59-0.63-1.06-1.38-1.39-2.24     s-0.51-1.78-0.51-2.76v-0.04c0-0.98,0.17-1.9,0.5-2.75c0.33-0.85,0.8-1.6,1.39-2.25c0.6-0.65,1.31-1.16,2.13-1.53     c0.82-0.37,1.73-0.56,2.73-0.56c1.01,0,1.87,0.14,2.57,0.43c0.7,0.29,1.34,0.66,1.92,1.12c0.12,0.1,0.23,0.23,0.32,0.39     c0.09,0.16,0.13,0.35,0.13,0.57c0,0.34-0.11,0.62-0.33,0.84c-0.22,0.22-0.49,0.33-0.81,0.33c-0.29,0-0.52-0.08-0.69-0.23     c-0.45-0.38-0.92-0.68-1.42-0.9c-0.5-0.22-1.07-0.33-1.7-0.33c-0.62,0-1.2,0.13-1.73,0.38c-0.53,0.25-0.99,0.6-1.37,1.04     c-0.38,0.44-0.68,0.95-0.9,1.54c-0.22,0.59-0.33,1.21-0.33,1.88v0.04c0,0.67,0.11,1.3,0.32,1.89c0.21,0.59,0.51,1.11,0.9,1.55     c0.39,0.44,0.85,0.78,1.38,1.04c0.53,0.25,1.11,0.38,1.73,0.38c0.7,0,1.3-0.11,1.81-0.34c0.51-0.23,0.99-0.55,1.47-0.97     c0.09-0.08,0.19-0.14,0.31-0.2c0.12-0.05,0.25-0.08,0.38-0.08c0.29,0,0.54,0.11,0.76,0.33c0.22,0.22,0.33,0.48,0.33,0.78     c0,0.18-0.04,0.35-0.11,0.49c-0.07,0.14-0.16,0.27-0.26,0.37c-0.62,0.57-1.31,1.02-2.05,1.35     C90.83,76.37,89.93,76.54,88.87,76.54z"/>
			<path class="st1" d="M130.91,76.54c-0.74,0-1.42-0.13-2.04-0.4c-0.62-0.27-1.16-0.63-1.62-1.1c-0.46-0.46-0.81-1-1.07-1.63     c-0.26-0.62-0.38-1.29-0.38-1.98v-0.04c0-0.7,0.13-1.36,0.38-1.99c0.26-0.63,0.61-1.18,1.08-1.65c0.46-0.47,1-0.84,1.63-1.11     c0.62-0.27,1.31-0.41,2.06-0.41c0.79,0,1.45,0.12,2,0.35c0.55,0.23,1.04,0.53,1.46,0.89c0.08,0.06,0.15,0.16,0.23,0.3     c0.08,0.14,0.12,0.3,0.12,0.49c0,0.29-0.1,0.53-0.31,0.73c-0.21,0.2-0.45,0.3-0.74,0.3c-0.27,0-0.5-0.08-0.67-0.22     c-0.29-0.25-0.6-0.45-0.94-0.61c-0.34-0.16-0.73-0.23-1.18-0.23c-0.41,0-0.79,0.08-1.14,0.25c-0.35,0.17-0.65,0.39-0.91,0.67     c-0.26,0.28-0.46,0.61-0.6,1c-0.14,0.39-0.22,0.79-0.22,1.22v0.04c0,0.44,0.07,0.85,0.22,1.24c0.14,0.39,0.35,0.72,0.61,1.01     c0.26,0.29,0.57,0.51,0.94,0.67c0.36,0.16,0.76,0.24,1.2,0.24c0.45,0,0.85-0.08,1.21-0.24c0.36-0.16,0.69-0.37,1-0.64     c0.06-0.06,0.15-0.12,0.25-0.17c0.11-0.05,0.23-0.07,0.37-0.07c0.27,0,0.51,0.1,0.69,0.29c0.19,0.19,0.28,0.43,0.28,0.7     c0,0.3-0.11,0.54-0.32,0.71c-0.44,0.42-0.94,0.77-1.51,1.02C132.43,76.41,131.74,76.54,130.91,76.54z"/>
			<g>
				<path class="st1" d="M143.83,63.69c0-0.34,0.12-0.62,0.35-0.85c0.23-0.23,0.53-0.35,0.91-0.35c0.34,0,0.62,0.11,0.85,0.35      c0.23,0.23,0.35,0.51,0.35,0.85c0,0.36-0.12,0.66-0.35,0.9c-0.23,0.24-0.51,0.36-0.85,0.36c-0.37,0-0.68-0.12-0.91-0.36      C143.95,64.35,143.83,64.06,143.83,63.69z"/>
				<path class="st1" d="M143.92,67.59c0-0.32,0.11-0.6,0.32-0.81c0.21-0.22,0.48-0.33,0.81-0.33c0.32,0,0.6,0.11,0.81,0.33      c0.22,0.22,0.33,0.49,0.33,0.81v7.83c0,0.32-0.11,0.59-0.33,0.8c-0.22,0.21-0.49,0.32-0.81,0.32c-0.31,0-0.58-0.11-0.8-0.32      c-0.22-0.21-0.33-0.48-0.33-0.8V67.59z"/>
			</g>
			<path class="st1" d="M136.72,66.44h4.48c0.3,0,0.55,0.1,0.76,0.3c0.2,0.2,0.3,0.45,0.3,0.76c0,0.29-0.1,0.53-0.3,0.73     c-0.2,0.2-0.45,0.29-0.76,0.29h-4.48c-0.3,0-0.55-0.1-0.76-0.3c-0.2-0.2-0.3-0.45-0.3-0.76c0-0.29,0.1-0.53,0.3-0.73     C136.17,66.54,136.42,66.44,136.72,66.44z M138.81,63.78c0.33,0,0.6,0.11,0.8,0.33c0.21,0.22,0.31,0.49,0.31,0.82v8.96     c0,0.18,0.03,0.32,0.1,0.43c0.07,0.11,0.16,0.2,0.28,0.25c0.12,0.05,0.25,0.08,0.39,0.08c0.15,0,0.29-0.03,0.42-0.09     c0.13-0.06,0.27-0.09,0.43-0.09c0.18,0,0.34,0.08,0.48,0.25c0.14,0.16,0.22,0.39,0.22,0.68c0,0.35-0.19,0.64-0.58,0.87     c-0.38,0.23-0.8,0.34-1.24,0.34c-0.26,0-0.56-0.02-0.88-0.07c-0.32-0.04-0.62-0.15-0.91-0.32c-0.28-0.17-0.52-0.43-0.71-0.78     c-0.19-0.35-0.28-0.84-0.28-1.46v-9.05c0-0.33,0.11-0.6,0.33-0.82S138.48,63.78,138.81,63.78z"/>
			<path class="st1" d="M122.87,49.44h4.48c0.3,0,0.55,0.1,0.76,0.3c0.2,0.2,0.3,0.45,0.3,0.76c0,0.29-0.1,0.53-0.3,0.73     c-0.2,0.2-0.45,0.29-0.76,0.29h-4.48c-0.3,0-0.55-0.1-0.76-0.3c-0.2-0.2-0.3-0.45-0.3-0.76c0-0.29,0.1-0.53,0.3-0.73     C122.31,49.53,122.56,49.44,122.87,49.44z M124.95,46.77c0.33,0,0.6,0.11,0.8,0.33c0.21,0.22,0.31,0.49,0.31,0.82v8.96     c0,0.18,0.03,0.32,0.1,0.43c0.07,0.11,0.16,0.2,0.28,0.25c0.12,0.05,0.25,0.08,0.39,0.08c0.15,0,0.29-0.03,0.42-0.09     c0.13-0.06,0.27-0.09,0.43-0.09c0.18,0,0.34,0.08,0.48,0.25c0.14,0.16,0.22,0.39,0.22,0.68c0,0.35-0.19,0.64-0.58,0.87     c-0.38,0.23-0.8,0.34-1.24,0.34c-0.26,0-0.56-0.02-0.88-0.07c-0.32-0.04-0.62-0.15-0.91-0.32c-0.28-0.17-0.52-0.43-0.71-0.78     c-0.19-0.35-0.28-0.84-0.28-1.46v-9.05c0-0.33,0.11-0.6,0.33-0.82C124.35,46.88,124.62,46.77,124.95,46.77z"/>
			<path class="st1" d="M134.98,49.24c0.91,0,1.6,0.2,2.07,0.59c0.47,0.39,0.8,0.91,0.97,1.56c0.18,0.65,0.26,1.37,0.26,2.16v4.84     c0,0.33-0.11,0.6-0.32,0.82c-0.21,0.22-0.49,0.33-0.81,0.33c-0.33,0-0.6-0.11-0.81-0.33c-0.21-0.22-0.32-0.49-0.32-0.82v-4.84     c0-0.42-0.05-0.79-0.15-1.12c-0.1-0.33-0.28-0.6-0.55-0.8c-0.26-0.2-0.64-0.3-1.13-0.3c-0.48,0-0.89,0.1-1.23,0.3     c-0.34,0.2-0.6,0.47-0.77,0.8c-0.17,0.33-0.26,0.71-0.26,1.12v4.84c0,0.33-0.11,0.6-0.32,0.82c-0.21,0.22-0.49,0.33-0.81,0.33     c-0.33,0-0.6-0.11-0.81-0.33c-0.21-0.22-0.32-0.49-0.32-0.82V46.51c0-0.33,0.11-0.6,0.32-0.82c0.21-0.22,0.49-0.33,0.81-0.33     c0.33,0,0.6,0.11,0.81,0.33c0.21,0.22,0.32,0.49,0.32,0.82v4.89l-0.28-0.06c0.11-0.21,0.27-0.44,0.47-0.69     c0.2-0.25,0.45-0.48,0.74-0.69c0.29-0.21,0.61-0.39,0.96-0.52C134.18,49.31,134.57,49.24,134.98,49.24z"/>
			<path class="st1" d="M163.46,59.53c-0.33,0-0.6-0.11-0.81-0.33c-0.21-0.22-0.32-0.49-0.32-0.82v-7.81c0-0.33,0.11-0.6,0.32-0.82     c0.21-0.22,0.49-0.33,0.81-0.33c0.33,0,0.6,0.11,0.81,0.33c0.21,0.22,0.32,0.49,0.32,0.82v1.78l-0.13-1.27     c0.14-0.3,0.32-0.57,0.54-0.8c0.22-0.23,0.47-0.43,0.75-0.59c0.28-0.16,0.57-0.27,0.89-0.35s0.63-0.11,0.95-0.11     c0.38,0,0.7,0.11,0.95,0.32c0.26,0.21,0.39,0.47,0.39,0.76c0,0.42-0.11,0.72-0.32,0.9c-0.21,0.18-0.45,0.27-0.7,0.27     c-0.24,0-0.46-0.04-0.65-0.13c-0.2-0.09-0.42-0.13-0.67-0.13c-0.23,0-0.46,0.05-0.69,0.16c-0.23,0.11-0.45,0.27-0.64,0.5     c-0.2,0.23-0.35,0.51-0.47,0.84c-0.12,0.33-0.18,0.73-0.18,1.18v4.48c0,0.33-0.11,0.6-0.32,0.82S163.79,59.53,163.46,59.53z"/>
			<path class="st1" d="M104.71,71.39c0,1.02-0.23,1.91-0.68,2.69c-0.45,0.78-1.06,1.38-1.82,1.81c-0.76,0.43-1.61,0.65-2.56,0.65     c-0.94,0-1.79-0.22-2.56-0.65c-0.76-0.43-1.37-1.04-1.82-1.81c-0.45-0.77-0.68-1.67-0.68-2.69c0-1.02,0.23-1.91,0.68-2.69     c0.45-0.77,1.06-1.38,1.82-1.82c0.76-0.44,1.61-0.66,2.56-0.66c0.94,0,1.79,0.22,2.56,0.66c0.76,0.44,1.37,1.05,1.82,1.82     C104.48,69.48,104.71,70.37,104.71,71.39z M102.48,71.39c0-0.63-0.13-1.18-0.38-1.65c-0.25-0.46-0.59-0.83-1.02-1.09     c-0.43-0.26-0.9-0.39-1.42-0.39s-0.99,0.13-1.42,0.39c-0.43,0.26-0.77,0.62-1.02,1.09c-0.25,0.46-0.38,1.01-0.38,1.65     c0,0.62,0.13,1.16,0.38,1.63c0.25,0.46,0.59,0.83,1.02,1.09s0.9,0.39,1.42,0.39s0.99-0.13,1.42-0.39s0.77-0.62,1.02-1.09     C102.35,72.55,102.48,72.01,102.48,71.39z"/>
			<path class="st1" d="M148.99,66.31c0.24,0,0.46,0.06,0.67,0.18c0.2,0.12,0.35,0.3,0.46,0.54l2.79,6.39l-0.42,0.19l2.85-6.56     c0.22-0.51,0.55-0.75,1.01-0.72c0.32,0,0.57,0.1,0.77,0.29c0.2,0.2,0.29,0.44,0.29,0.73c0,0.09-0.02,0.18-0.05,0.28     c-0.03,0.1-0.07,0.2-0.1,0.29l-3.56,7.83c-0.2,0.46-0.53,0.7-0.97,0.72c-0.24,0.04-0.47-0.01-0.69-0.13     c-0.22-0.13-0.39-0.32-0.5-0.59L148,67.93c-0.03-0.06-0.05-0.15-0.09-0.25c-0.03-0.1-0.05-0.22-0.05-0.36     c0-0.23,0.1-0.45,0.3-0.68C148.37,66.42,148.64,66.31,148.99,66.31z"/>
		</g>
	</g>
</g>
<g id="Layer_6">
</g>
</svg>